HIERARCHY
ROOT simHips
{
  OFFSET -278.161 83.7234 -254.972
  CHANNELS 6 Xposition Yposition Zposition Zrotation Xrotation Yrotation
  JOINT simSpine
  {
    OFFSET -0.000355721 21.3001 -0.016921
    CHANNELS 3 Zrotation Xrotation Yrotation
    JOINT simLeftArm
    {
      OFFSET 13.5181 21.3012 0
      CHANNELS 3 Zrotation Xrotation Yrotation
      JOINT simLeftForeArm
      {
        OFFSET 24.5783 0 0
        CHANNELS 3 Zrotation Xrotation Yrotation
        JOINT simLeftHand
        {
          OFFSET 24.5783 0 0
          CHANNELS 3 Zrotation Xrotation Yrotation
          End Site
          {
            OFFSET 7.32568 1.52588e-005 0.0169305
          }
        }
      }
    }
    JOINT simHead
    {
      OFFSET 0 27.4458 -0.00489235
      CHANNELS 3 Zrotation Xrotation Yrotation
      End Site
      {
        OFFSET 0 0 0
      }
    }
    JOINT simRightArm
    {
      OFFSET -13.5174 21.3012 0
      CHANNELS 3 Zrotation Xrotation Yrotation
      JOINT simRightForeArm
      {
        OFFSET -24.5783 0 0
        CHANNELS 3 Zrotation Xrotation Yrotation
        JOINT simRightHand
        {
          OFFSET -24.5783 0 0
          CHANNELS 3 Zrotation Xrotation Yrotation
          End Site
          {
            OFFSET -7.32568 1.52588e-005 0.0169305
          }
        }
      }
    }
  }
  JOINT simRightUpLeg
  {
    OFFSET -8.44614 -9.41038 0.835684
    CHANNELS 3 Zrotation Xrotation Yrotation
    JOINT simRightLeg
    {
      OFFSET 0 -40.9639 0
      CHANNELS 3 Zrotation Xrotation Yrotation
      JOINT simRightFoot
      {
        OFFSET 0 -40.9639 0
        CHANNELS 3 Zrotation Xrotation Yrotation
        End Site
        {
          OFFSET 0.50614 -9.67405 14.6709
        }
      }
    }
  }
  JOINT simLeftUpLeg
  {
    OFFSET 8.44614 -9.41038 0.835684
    CHANNELS 3 Zrotation Xrotation Yrotation
    JOINT simLeftLeg
    {
      OFFSET 0 -40.9639 0
      CHANNELS 3 Zrotation Xrotation Yrotation
      JOINT simLeftFoot
      {
        OFFSET 0 -40.9639 0
        CHANNELS 3 Zrotation Xrotation Yrotation
        End Site
        {
          OFFSET -0.50614 -9.67405 14.6709
        }
      }
    }
  }
}
MOTION
Frames:	26
Frame Time:	0.0333333
233.192 88.8718 262.715 5.90715 -4.0382 -168.116 2.48955 3.17297 -0.94704 -47.6517 15.8839 -42.9516 -4.34872 0.315212 -97.0537 -15.5606 -23.8123 -26.0749 4.0271 10.8894 1.58256 71.9591 30.352 -0.439425 3.22878 0.0762717 3.39674 4.76857 0.963621 -4.07691 5.25276 -34.5003 -3.06843 16.3008 54.1413 -6.17803 -14.6423 -24.7991 2.78793 10.0844 -18.217 3.27605 17.0325 81.6855 -18.4617 -5.66945 0.650865 -3.82906 
233.042 89.8644 258.971 5.38161 -5.41473 -171.025 2.31806 3.42861 -0.470647 -48.75 15.683 -36.405 -4.1014 0.232117 -97.3011 -15.3072 -24.7175 -25.7192 2.66561 9.80099 4.1122 69.9497 33.7619 5.19058 2.95124 -0.110645 4.53239 4.22238 2.39332 -4.48661 6.27764 -31.5026 -1.04249 14.7833 51.4758 -3.93432 -15.1736 -25.6997 3.14516 8.85261 -25.5593 3.65602 27.2734 84.453 -27.8591 -5.04827 0.495737 -3.38858 
232.917 91.1372 255.136 5.14211 -7.32347 -173.835 2.14732 3.58037 0.049791 -49.4274 15.8391 -28.6512 -4.37019 0.361425 -96.7677 -13.9002 -25.4833 -24.4602 1.41897 7.71702 5.55636 68.1428 36.9185 10.5315 2.04015 -0.757443 7.9285 3.54861 4.06884 -4.93378 7.51595 -28.2696 1.22394 12.6066 47.0822 -1.24944 -15.1822 -25.7518 3.60748 8.15763 -32.9401 3.65552 25.3361 84.1092 -25.1236 -5.01455 0.935134 -2.81361 
232.832 92.5145 251.175 4.68648 -9.47707 -176.003 1.89338 3.64463 0.498699 -51.0385 16.8281 -20.2343 -4.52984 0.563102 -95.0961 -12.3485 -24.6403 -22.8739 0.525668 5.0931 4.79324 66.4078 40.0849 14.6361 0.504273 -2.16874 14.0108 2.69232 5.88157 -4.87014 8.12015 -24.646 3.05377 10.3117 41.3209 1.33331 -14.715 -25.1969 4.09765 7.17955 -39.8187 2.5077 14.2671 80.9291 -13.4916 -4.63287 0.0409623 -2.48087 
232.796 93.7833 246.988 3.56209 -11.7542 -177.694 1.47805 3.67516 0.911285 -54.1054 17.8064 -11.1512 -4.75455 0.626461 -93.2954 -10.1092 -20.8969 -20.491 -0.829463 2.08628 1.74178 64.4237 42.0822 17.2092 -0.689648 -4.23675 22.3409 1.91557 9.2772 -3.87961 7.99621 -20.6788 4.90205 7.80452 34.6674 3.31605 -13.9062 -24.1877 4.26812 5.15813 -45.568 0.049364 5.87912 74.6934 -4.19815 -4.22511 -1.11475 -1.82856 
232.783 94.6609 242.596 2.16114 -13.826 -178.868 1.02277 3.69752 1.17826 -57.7365 18.5394 -2.08586 -5.05115 0.399836 -91.5604 -8.19641 -14.6174 -18.3283 -2.82752 -0.830263 -2.42397 63.0177 41.8364 17.2682 -0.218765 -6.13617 33.4029 1.82916 14.128 -2.56101 7.29709 -16.4632 6.15393 5.57796 27.9679 4.64252 -12.7291 -22.9887 4.40797 2.4465 -49.8044 -3.30985 2.3591 65.9621 0.574057 -4.48136 -1.76703 -0.679665 
232.741 95.0099 238.071 0.729476 -15.5781 -179.536 0.637363 3.7346 1.36695 -61.3098 19.0166 6.57385 -5.33052 0.147396 -89.8126 -6.11466 -7.70912 -17.2046 -5.10519 -3.47901 -6.6271 62.1783 39.3838 15.3672 2.16134 -5.9932 45.9058 2.02432 18.5468 -1.14587 5.57678 -12.2581 6.08011 5.0176 21.7504 5.15348 -12.2244 -21.4878 4.67996 -0.14765 -52.5395 -5.96084 1.86349 55.3703 0.79972 -4.89581 -2.41047 -0.48309 
232.688 94.7756 233.406 -0.229663 -16.9722 -179.826 0.417565 3.79533 1.56969 -64.0338 19.2691 14.5668 -5.5299 0.0508681 -88.2045 -5.16675 -3.02002 -16.3059 -6.88577 -5.78427 -10.3 61.8156 36.0517 12.6573 4.65507 -3.34542 57.8587 1.61805 20.7292 0.584119 4.11679 -8.45963 5.76026 5.01498 17.2405 5.61651 -11.6901 -20.385 4.99855 -1.76261 -53.8958 -7.6466 1.91888 43.6336 -2.35656 -4.79337 -2.48131 -2.23383 
232.713 94.095 228.562 -1.00602 -17.7814 179.92 0.250707 3.95267 1.81492 -66.4608 19.7194 21.8772 -5.72375 -0.122435 -86.6841 -4.41956 0.135363 -15.6087 -8.28611 -7.66584 -12.9365 61.7238 32.0294 9.2532 6.0656 1.28973 68.2419 1.15502 19.7399 2.89913 3.25155 -4.32735 6.75439 4.86715 13.6611 5.36542 -11.3444 -19.6047 4.7333 -2.52328 -54.5291 -10.4005 0.00950131 33.9512 -5.27507 -3.96584 -3.04881 -4.82716 
232.741 93.0693 223.508 -2.02467 -17.9019 179.714 0.00530156 4.20614 2.039 -69.0522 19.9566 28.5536 -5.83526 -0.122935 -85.5065 -3.65159 2.87669 -15.2931 -9.46072 -8.62238 -14.8687 61.5959 31.2068 6.15071 5.64824 3.2636 76.3191 0.0351042 17.2521 5.13652 2.29134 -0.35105 7.48577 4.61428 12.2092 4.98504 -10.9938 -19.2669 4.38374 -3.79628 -55.0391 -12.0859 -1.93398 29.4594 -6.6181 -3.01879 -5.60282 -6.45144 
232.7 91.6417 218.145 -2.88421 -17.4431 179.707 -0.239667 4.50383 2.18815 -71.3975 20.7095 33.9565 -5.91529 -0.0422474 -84.4709 -3.8179 2.52813 -15.2502 -10.3285 -8.55184 -16.2592 62.3981 31.4686 2.45693 5.00178 3.8081 81.6431 -2.07315 15.2946 7.33516 1.49905 2.02678 7.59008 4.9577 15.5319 4.37264 -10.5018 -19.3595 4.23384 -6.04764 -55.4938 -9.35628 -1.90406 31.3979 -5.16176 -5.40142 -7.69631 -5.47657 
232.851 90.3895 212.84 -3.81866 -17.1346 179.065 -0.558697 4.74587 2.323 -73.6747 21.1043 37.3842 -6.00936 0.132355 -83.0956 -4.50477 -0.3721 -15.7729 -11.0177 -8.66353 -16.7191 63.6107 31.778 -1.11168 4.69984 3.87626 83.8039 -4.30582 15.3463 8.55745 0.754704 1.45518 6.90108 5.73888 23.3622 3.80513 -9.13543 -16.9428 4.74557 -6.75662 -55.0233 -1.72144 0.351624 35.1394 -7.26827 -0.639631 -1.48011 -6.39408 
233.146 89.3567 207.75 -5.56365 -17.0663 178.407 -1.02857 4.89544 2.12551 -76.4168 21.5487 38.8658 -6.12721 0.243065 -81.5991 -4.5601 -1.58359 -15.8903 -12.5059 -8.66344 -17.4162 64.4031 30.7164 -4.37759 4.90172 3.81124 82.3662 -5.03976 16.1889 8.15087 -1.46693 -3.04476 4.33343 7.706 36.76 3.47712 -6.40549 -10.5689 6.06866 -9.74849 -56.0269 -3.54099 0.817702 43.6061 -6.33521 2.20472 -5.42981 -6.24069 
233.363 88.2132 202.386 -6.50955 -16.1787 178.558 -1.32809 5.15495 1.70056 -78.2204 22.8327 38.6311 -6.24675 0.278694 -80.1617 -4.45779 -0.157854 -15.2237 -13.8784 -7.35257 -18.3113 66.0974 28.8575 -8.00076 5.50011 3.47928 77.7099 -6.05416 17.9417 7.12939 -3.28443 -8.39785 3.29907 11.6865 52.8643 1.371 -0.776463 -4.74941 6.69907 -12.0389 -55.5285 -8.10348 -2.01983 52.0914 -2.21934 2.65532 -13.0286 -5.37507 
233.673 87.6426 196.603 -7.448 -14.7886 178.158 -1.65739 5.36559 1.39744 -78.8109 24.9744 35.3169 -6.34382 0.213149 -79.0614 -4.40819 2.01668 -14.3981 -15.5807 -5.61869 -18.8584 67.4085 27.4389 -10.7598 6.19088 2.57362 70.3768 -9.93653 19.8563 7.95929 -4.7121 -13.8074 5.30092 21.6028 66.1164 -7.05868 4.3629 4.40994 6.15951 -12.0496 -52.2902 -6.77852 -2.44527 57.2324 -1.50029 3.47717 -19.531 -5.35172 
233.868 87.3799 191.062 -6.74095 -14.0021 178.055 -1.54415 5.39461 1.07064 -76.1759 28.4899 28.2238 -6.42959 0.144864 -78.0389 -3.96317 2.7475 -14.677 -15.5182 -4.49695 -19.4998 70.8443 29.186 -12.2302 5.23478 -2.09596 61.0604 -14.5568 20.6171 8.95623 -3.70643 -20.327 7.86747 44.6319 76.0158 -28.9451 3.05647 2.4959 6.30753 -9.4885 -48.836 -2.99789 -1.15667 60.5345 -3.31173 4.17264 -24.9217 -5.84297 
234.11 87.8538 185.46 -6.04292 -13.6009 179.155 -1.30517 5.39791 0.547164 -71.2769 33.1682 17.7315 -6.49536 0.163185 -77.1543 -4.31417 3.02954 -14.6496 -15.1397 -4.32659 -21.7026 73.7384 28.135 -14.8658 3.43001 -5.16326 52.6794 -17.9777 20.1576 9.63926 -3.49332 -27.3244 7.84293 82.6654 79.8759 -66.1867 0.500769 -0.117079 6.50907 -8.12017 -43.7811 -1.69298 -0.880963 60.2859 -4.30993 4.71021 -28.6692 -6.21774 
234.486 88.9386 179.908 -5.03545 -13.6711 -179.616 -0.937496 5.2666 0.0454779 -65.9802 35.6568 7.38221 -6.54309 0.0521006 -76.5764 -4.57513 6.90123 -14.1315 -14.177 -4.10536 -23.171 75.5159 26.0879 -17.7574 2.11929 -6.12255 46.2831 -20.1317 17.8271 9.83174 -3.03454 -34.5646 7.24434 106.527 79.7682 -90.8873 1.08635 -1.35544 5.41799 -6.30564 -38.0367 -0.968851 -1.19553 57.2672 -4.84444 4.89525 -30.7357 -6.57898 
234.819 90.6007 174.259 -4.00822 -14.227 -179.192 -0.547368 4.97274 -0.504793 -62.3339 35.7522 0.310584 -6.49803 -0.10095 -77.3225 -3.17478 11.375 -13.4866 -12.7287 -4.64289 -23.2952 76.4198 24.9285 -19.9568 1.20007 -6.50269 42.1781 -20.4087 15.5079 9.25511 -2.67592 -41.4103 6.70937 104.532 80.0698 -90.0352 0.392384 -1.9319 4.73488 -4.48575 -31.6173 0.034741 -0.751366 51.4113 -5.90245 4.70404 -30.6143 -6.79889 
235.185 92.6385 168.32 -2.55189 -15.0886 -179.136 0.00197051 4.51797 -1.0766 -59.6962 34.7728 -3.69333 -6.41808 -0.0749517 -78.4038 -1.10921 12.1575 -13.8032 -10.7536 -5.51465 -22.3222 76.8827 23.2424 -21.4907 0.706667 -6.5552 39.7004 -20.0814 16.3478 9.32878 -1.73209 -46.689 6.57547 75.0333 79.9411 -61.8028 0.237144 -3.1933 4.36867 -2.77688 -24.8754 0.319656 0.171337 43.7179 -6.70929 3.48197 -27.2463 -6.70959 
235.587 94.6161 162.106 -1.25452 -16.3174 -179.596 0.512934 3.90375 -1.51727 -57.8781 33.489 -5.65234 -6.34361 -0.0218862 -79.3317 0.828613 10.4628 -14.075 -8.6747 -6.76582 -20.1278 76.5589 20.5979 -22.4612 0.61443 -6.47504 38.8483 -17.7048 18.829 8.95333 -0.525244 -50.3058 6.9645 41.1884 74.8542 -29.3407 0.635193 -4.26082 4.15232 -1.56431 -19.0265 -0.283852 0.744183 36.1903 -6.30238 2.06332 -19.6041 -5.98775 
236.103 96.1727 155.726 -0.0685521 -17.6809 179.317 0.954931 3.24619 -1.71101 -56.5127 32.0277 -5.90903 -6.28328 0.0238121 -80.0439 2.64123 9.59565 -14.4478 -6.22765 -8.48586 -16.7035 76.1623 18.1903 -23.2511 0.764475 -6.42569 39.3931 -14.1142 19.9594 7.15159 1.66091 -52.0487 8.17995 23.1097 64.7516 -12.3003 1.0573 -5.03764 4.22488 0.191401 -14.2087 -0.391502 0.106369 30.1187 -5.08275 0.957343 -10.4509 -5.11774 
236.7 97.0901 149.18 0.797782 -18.5372 177.889 1.30309 2.70177 -1.80288 -55.4766 31.0941 -5.11818 -6.29486 0.0756224 -79.8319 4.3312 9.64242 -15.2068 -3.71472 -9.83936 -12.6276 75.8101 16.651 -23.7792 0.952407 -6.39463 40.2552 -11.9322 19.949 5.93433 4.34453 -51.2142 8.32843 11.6673 52.2191 -0.703359 1.74851 -7.16048 5.09108 1.9471 -10.158 0.393664 -0.443608 27.0846 -4.73756 -1.95048 -3.63222 -4.57529 
237.356 97.3119 142.458 1.10615 -18.6021 176.691 1.53355 2.29807 -1.98771 -54.7516 31.4193 -4.13074 -6.40834 0.0516999 -78.4048 5.59507 9.93906 -15.6287 -1.6198 -10.258 -8.66186 75.1032 15.5445 -23.5128 0.923098 -6.59695 41.0553 -11.3108 21.1863 5.78259 6.4653 -48.1448 10.1019 6.82981 39.1818 4.85313 0.696531 -9.70364 6.25201 2.07321 -7.82044 0.0558857 1.21577 29.3017 -5.76603 -6.684 -0.137155 -3.94792 
238.094 96.6777 135.895 1.61366 -17.7096 176.264 1.76163 2.08829 -2.22519 -53.7079 33.0368 -3.13157 -6.55916 0.0409205 -76.3551 5.64377 10.1439 -14.6531 0.0126411 -9.74161 -5.31188 74.3701 13.8948 -22.7672 1.10713 -6.69347 42.5417 -10.9907 22.9641 5.24489 9.5797 -44.2841 13.9678 3.27833 30.8616 5.84005 -0.0716949 -12.7586 5.36955 1.67765 -7.49729 -3.69165 2.43746 36.8585 -5.91774 -9.90299 3.24809 -3.03708 
238.834 95.0754 129.518 2.38975 -16.0047 176.346 1.99944 2.04959 -2.33065 -52.2761 35.3165 -2.47929 -6.74286 -0.0387098 -73.6184 5.33116 11.5397 -13.0989 1.41169 -8.37504 -2.8277 73.9587 12.1617 -21.6467 1.62237 -6.55804 45.0456 -10.9323 23.5858 5.10286 11.0774 -41.3615 15.1947 3.39771 30.3719 3.6235 -0.903135 -13.7025 3.95258 1.69617 -8.70801 -7.91596 1.43502 48.6826 -5.9624 -10.0863 5.29799 -3.74874 
